<svg xmlns="http://www.w3.org/2000/svg" viewBox="0 0 750 500" width="60%"><path d="M650 220.72a28.4 28.4 0 01-8.4 3.4 29 29 0 118.4-3.4z" fill="#ebebeb"></path><path d="M643.92 192.67a8.82 8.82 0 11-8.71-8.92 8.82 8.82 0 018.71 8.92z" fill="#fff"></path><path d="M650.06 217.08v3.64a28.4 28.4 0 01-8.4 3.4 28.81 28.81 0 01-22.08-3.77v-3.63a15.25 15.25 0 0130.49.36z" fill="#fff"></path><path d="M114.72 138.82a19 19 0 01-28.29-12 19 19 0 1128.29 12z" fill="#ebebeb"></path><path d="M110.73 120.45a5.78 5.78 0 11-5.73-5.85 5.78 5.78 0 015.73 5.85z" fill="#fff"></path><path d="M114.75 136.44v2.38a19 19 0 01-20-.25v-2.37a10 10 0 1120 .24z" fill="#fff"></path><path d="M261.56 140.3H134.92V53.67h126.64zm-125.64-1h124.64V54.67H135.92z" fill="#ebebeb"></path><path d="M144.82 59.25a2.52 2.52 0 11-2.52-2.52 2.52 2.52 0 012.52 2.52z" fill="#a6a6a6"></path><path d="M155.11 59.25a2.52 2.52 0 11-2.52-2.52 2.52 2.52 0 012.52 2.52z" fill="#ebebeb"></path><path d="M165.41 59.25a2.53 2.53 0 11-2.52-2.52 2.52 2.52 0 012.52 2.52z" fill="#ffc727"></path><path fill="#ebebeb" d="M135.42 63.68h125.64v1H135.42zM83.038 189.702l65.98-9.002 5.708 41.842-65.978 9.003z"></path><path d="M149 180.72c-2.32 2.91-4.7 5.72-7 8.6s-4.75 5.64-7.15 8.44-5 5.82-7.52 8.71l-.22.27q-3.34 3.82-6.7 7.63l-.34.37-.41-.26c-2.83-1.86-5.66-3.71-8.49-5.58a2.49 2.49 0 01-.3-.19q-4.8-3.15-9.59-6.38-4.56-3.08-9.13-6.22c-3-2.14-6.08-4.21-9.09-6.39 3.13 1.79 6.23 3.71 9.34 5.56s6.21 3.8 9.3 5.74q5.16 3.21 10.33 6.53l7.73 4.95c2-2.28 4.07-4.58 6.11-6.84 2.72-3 5.45-6.06 8.2-9q3.69-4 7.42-8c2.51-2.66 4.98-5.37 7.51-7.94z" fill="#fff"></path><path d="M112.22 208.49a.5.5 0 00-.07.08l-.92 1c-1.47 1.63-3 3.2-4.53 4.73-1.88 1.89-3.82 3.72-5.77 5.54s-4 3.58-6 5.31-4.09 3.43-6.25 5c1.76-2 3.62-3.95 5.51-5.83s3.83-3.72 5.77-5.54 4-3.59 6-5.32c1.61-1.38 3.27-2.75 5-4l1.18-.9zM154.37 221.24c-2.51-1-5-2.05-7.37-3.17s-4.81-2.31-7.19-3.51-4.73-2.48-7.05-3.79c-1.89-1.07-3.76-2.17-5.6-3.34l-1.17-.75-.09-.06h.11l1.38.56c2 .8 3.94 1.67 5.87 2.57 2.43 1.12 4.81 2.31 7.19 3.52s4.72 2.47 7 3.79 4.68 2.7 6.92 4.18z" fill="#fff"></path><path fill="#ebebeb" d="M570.672 300.013l15.414-65.1 102.652 24.304-15.413 65.1z"></path><path d="M688.71 259.19c-5.09 3-10.21 5.78-15.31 8.7s-10.24 5.64-15.38 8.41q-8 4.35-16.08 8.58l-.49.28q-7.11 3.73-14.25 7.46l-.7.35-.45-.62q-4.71-6.53-9.38-13.08c-.11-.13-.22-.29-.33-.45-3.54-4.94-7.05-9.89-10.54-14.9-3.33-4.76-6.65-9.58-10-14.39s-6.58-9.69-9.79-14.64c3.61 4.45 7.09 9 10.63 13.55s7 9.15 10.48 13.78q5.8 7.69 11.55 15.54c2.87 3.89 5.74 7.81 8.61 11.72 4.3-2.22 8.62-4.45 12.93-6.62 5.76-2.93 11.51-5.85 17.28-8.71q7.75-3.86 15.53-7.6c5.3-2.46 10.47-5 15.69-7.36z" fill="#fff"></path><path d="M618.51 279.28c-.06 0-.1.06-.15.08l-1.94 1q-4.63 2.34-9.38 4.4c-3.86 1.73-7.77 3.33-11.69 4.9s-7.87 3-11.86 4.44-8 2.75-12.11 3.88c3.76-2 7.6-3.77 11.46-5.48s7.78-3.32 11.69-4.9 7.89-3 11.88-4.45c3.18-1.12 6.4-2.2 9.65-3.15.76-.23 1.51-.44 2.27-.65zM673.55 322.15c-3.16-2.85-6.16-5.85-9.08-8.89s-5.79-6.16-8.63-9.29-5.58-6.35-8.26-9.62c-2.19-2.65-4.33-5.34-6.38-8.12l-1.3-1.77s-.06-.1-.1-.14a.63.63 0 00.13.11l1.74 1.62c2.48 2.31 4.86 4.71 7.21 7.14 2.94 3.05 5.79 6.16 8.61 9.3s5.58 6.35 8.26 9.62 5.33 6.57 7.8 10.04z" fill="#fff"></path><path fill="#ebebeb" d="M411.8 38.96h60.61V77.4H411.8z"></path><path d="M472.4 39c-2.44 2.34-4.94 4.58-7.4 6.89s-5 4.51-7.49 6.73-5.23 4.64-7.85 6.93l-.24.22-7 6.06-.34.28-.34-.28-7-6.07-.25-.21q-3.94-3.43-7.86-6.94c-2.5-2.21-5-4.47-7.47-6.72s-5-4.55-7.41-6.89c2.6 2 5.16 4.11 7.73 6.17s5.14 4.18 7.69 6.32q4.25 3.52 8.5 7.15c2.12 1.79 4.24 3.6 6.37 5.41 2.11-1.81 4.23-3.63 6.35-5.41q4.25-3.6 8.51-7.16 3.81-3.18 7.67-6.3c2.67-2.11 5.23-4.18 7.83-6.18z" fill="#fff"></path><path d="M435.82 59.48s-.05.05-.08.06c-.32.28-.63.55-.95.81-1.52 1.29-3.08 2.52-4.66 3.71-1.93 1.47-3.91 2.88-5.89 4.29s-4 2.73-6 4.05-4.12 2.59-6.26 3.76c1.84-1.61 3.75-3.11 5.68-4.57s3.92-2.89 5.89-4.29 4-2.75 6.05-4.06c1.63-1.05 3.29-2.08 5-3l1.18-.67zM472.26 76.16C470.12 75 468 73.71 466 72.4s-4-2.68-6-4.05-4-2.82-5.89-4.29c-1.57-1.19-3.13-2.41-4.64-3.7l-1-.82-.07-.06.09.05 1.18.67c1.69 1 3.34 2 5 3 2.05 1.31 4.05 2.68 6 4.06s4 2.81 5.89 4.29 3.86 3 5.7 4.61z" fill="#fff"></path><g><ellipse cx="209.64" cy="449.33" rx="147.31" ry="12.68" fill="#ebebeb"></ellipse></g><g><path fill="#263238" d="M50.72 356.77l81.07-.25 81.07-.09 162.14-.16 162.14.16 81.07.09 81.07.25-81.07.24-81.07.09-162.14.16-162.14-.16-81.07-.09-81.07-.24z"></path></g><g><path fill="#dbdbdb" d="M153.44 73.03h441.45v295.29H153.44z"></path><path fill="#263238" d="M156.64 76.63h435.03v288.09H156.64z"></path><path fill="#c7c7c7" d="M95.94 390.47h556.44v20.27H95.94z"></path><path fill="#dbdbdb" d="M95.94 390.46l57.5-22.14h441.44l57.5 22.14H95.94z"></path><path fill="#263238" d="M158.57 382.61l37.1-14.29h356.97l37.11 14.29H158.57z"></path><path fill="#fff" d="M181.23 98.52h385.86v244.32H181.23z"></path><path fill="#455a64" d="M180.9 98.52h386.19v9.4H180.9z"></path><path d="M188.38 103.22a2.34 2.34 0 11-2.34-2.33 2.33 2.33 0 012.34 2.33z" fill="#c7c7c7"></path><path d="M197.9 103.22a2.34 2.34 0 11-2.34-2.33 2.33 2.33 0 012.34 2.33z" fill="#fff"></path><path d="M207.42 103.22a2.34 2.34 0 11-2.33-2.33 2.33 2.33 0 012.33 2.33z" fill="#ffc727"></path><path fill="#dbdbdb" d="M560.24 107.92h6.85v234.91h-6.85z"></path><path d="M563.66 189.36a1.77 1.77 0 01-1.77-1.77v-76.53a1.77 1.77 0 011.77-1.77 1.77 1.77 0 011.77 1.77v76.53a1.77 1.77 0 01-1.77 1.77z" fill="#a6a6a6"></path><path fill="#fff" d="M292.43 122.7h207.99v7.91H292.43z"></path><path d="M500.5 130.69H292.35v-8.07H500.5z" fill="#ebebeb"></path><path fill="#ffc727" d="M492.42 122.62h8.08v8.08h-8.08z"></path><path d="M499 128.87l-.73.55-1.36-1.78-.49-.66a.88.88 0 00.28-.16 1.25 1.25 0 00.38-.48l.52.69z" fill="#fff"></path><path d="M497.53 124.66a2 2 0 10-.65 3 1.67 1.67 0 00.28-.18 2.08 2.08 0 00.41-.43 2 2 0 00-.04-2.39zm-.86 2.16a.88.88 0 01-.28.16 1.17 1.17 0 01-1.39-.38 1.19 1.19 0 112.05-.26 1.25 1.25 0 01-.38.48z" fill="#fff"></path><path fill="#c7c7c7" d="M294.08 124.25h.42v4.8h-.42z"></path><path d="M546.34 130.92a4.63 4.63 0 01-1.29.54 4.5 4.5 0 01-5.43-3.3 4.49 4.49 0 116.72 2.76z" fill="#ffc727"></path><path d="M545.35 126.58a1.37 1.37 0 11-1.37-1.37 1.37 1.37 0 011.37 1.37z" fill="#fff"></path><path d="M546.34 130.35v.57a4.63 4.63 0 01-1.29.54 4.43 4.43 0 01-3.43-.55v-.56a2.36 2.36 0 014.72 0z" fill="#fff"></path><path d="M530.78 131.59h-3.13v-1.11a.16.16 0 00-.09-.15l-.34-.19a.17.17 0 00-.18 0l-1 .55-1.56-2.7 1-.56a.18.18 0 00.08-.16v-.19-.19a.18.18 0 00-.08-.16l-1-.56 1.56-2.7 1 .55a.17.17 0 00.18 0 3.79 3.79 0 01.34-.2.14.14 0 00.09-.14v-1.11h3.13v1.11a.18.18 0 00.09.15 1.86 1.86 0 01.34.19.17.17 0 00.18 0l1-.55 1.56 2.7-1 .56a.18.18 0 00-.08.16v.38a.18.18 0 00.08.16l1 .56-1.56 2.7-1-.55a.17.17 0 00-.18 0l-.34.19a.16.16 0 00-.09.15zm-2.35-.78H530v-.33a.94.94 0 01.52-.84l.27-.15a1 1 0 011 0l.28.17.79-1.36-.29-.17a.93.93 0 01-.47-.87v-.3a.94.94 0 01.47-.88l.29-.16-.79-1.36-.28.16a.93.93 0 01-1 0l-.27-.15a1 1 0 01-.52-.84v-.33h-1.57v.33a1 1 0 01-.52.84l-.27.15a.93.93 0 01-1 0l-.28-.16-.79 1.36.29.16a.94.94 0 01.47.88v.3a1 1 0 01-.47.88l-.29.16.79 1.36.28-.17a1 1 0 011 0l.27.16a.94.94 0 01.52.84zm.79-1.43a2.31 2.31 0 112.31-2.31 2.31 2.31 0 01-2.31 2.31zm0-3.84a1.53 1.53 0 101.53 1.53 1.53 1.53 0 00-1.53-1.53z" fill="#dbdbdb"></path><path fill="#ebebeb" d="M272.14 163.23h288.1v16.33h-288.1z"></path><path fill="#fff" d="M284.92 168.94h4.9v4.9h-4.9zM310.66 173.84h-4.9l2-2.45-2-2.45h4.9l2 2.45-2 2.45z"></path><path fill="#ffc727" d="M298.06 168.94l.79 1.61 1.79.26-1.29 1.26.3 1.77-1.59-.84-1.6.84.31-1.77-1.29-1.26 1.78-.26.8-1.61z"></path><path fill="#263238" d="M316.18 170.39h39.07v2h-39.07zM503.34 170.39h35.47v2h-35.47z"></path><path fill="#455a64" d="M367.18 170.39h121.26v2H367.18z"></path><path fill="#fff" d="M284.92 185.27h4.9v4.9h-4.9z"></path><path d="M290.08 190.42h-5.41V185h5.41zm-4.91-.5h4.41v-4.4h-4.41z" fill="#ebebeb"></path><path fill="#fff" d="M310.66 190.17h-4.9l2-2.45-2-2.45h4.9l2 2.45-2 2.45z"></path><path d="M310.78 190.42h-5.55l2.2-2.7-2.2-2.7h5.55l2.2 2.7zm-4.5-.5h4.26l1.8-2.2-1.8-2.2h-4.26l1.8 2.2z" fill="#ebebeb"></path><path fill="#ffc727" d="M298.06 185.27l.79 1.61 1.79.26-1.29 1.26.3 1.77-1.59-.84-1.6.84.31-1.77-1.29-1.26 1.78-.26.8-1.61z"></path><path fill="#263238" d="M316.18 186.72h39.07v2h-39.07zM503.34 186.72h35.47v2h-35.47z"></path><path fill="#455a64" d="M367.18 186.72h121.26v2H367.18z"></path><path fill="#ebebeb" d="M272.14 195.88h288.1v16.33h-288.1z"></path><path fill="#fff" d="M284.92 201.59h4.9v4.9h-4.9zM310.66 206.5h-4.9l2-2.45-2-2.46h4.9l2 2.46-2 2.45zM298.06 201.59l.79 1.62 1.79.26-1.29 1.25.3 1.78-1.59-.84-1.6.84.31-1.78-1.29-1.25 1.78-.26.8-1.62z"></path><path fill="#dbdbdb" d="M316.18 203.05h39.07v2h-39.07zM503.34 203.05h35.47v2h-35.47z"></path><path fill="#c7c7c7" d="M367.18 203.05h121.26v2H367.18z"></path><path fill="#fff" d="M284.92 217.92h4.9v4.9h-4.9z"></path><path d="M290.08 223.08h-5.41v-5.41h5.41zm-4.91-.5h4.41v-4.41h-4.41z" fill="#ebebeb"></path><path fill="#fff" d="M310.66 222.83h-4.9l2-2.45-2-2.46h4.9l2 2.46-2 2.45z"></path><path d="M310.78 223.08h-5.55l2.2-2.7-2.2-2.71h5.55l2.2 2.71zm-4.5-.5h4.26l1.8-2.2-1.8-2.21h-4.26l1.8 2.21z" fill="#ebebeb"></path><path fill="#ffc727" d="M298.06 217.92l.79 1.62 1.79.26-1.29 1.25.3 1.78-1.59-.84-1.6.84.31-1.78-1.29-1.25 1.78-.26.8-1.62z"></path><path fill="#dbdbdb" d="M316.18 219.38h39.07v2h-39.07zM503.34 219.38h35.47v2h-35.47z"></path><path fill="#c7c7c7" d="M367.18 219.38h121.26v2H367.18z"></path><path fill="#ebebeb" d="M272.14 228.54h288.1v16.33h-288.1z"></path><path fill="#fff" d="M284.92 234.25h4.9v4.9h-4.9zM310.66 239.16h-4.9l2-2.46-2-2.45h4.9l2 2.45-2 2.46z"></path><path fill="#ffc727" d="M298.06 234.25l.79 1.62 1.79.26-1.29 1.25.3 1.78-1.59-.84-1.6.84.31-1.78-1.29-1.25 1.78-.26.8-1.62z"></path><path fill="#dbdbdb" d="M316.18 235.71h39.07v2h-39.07zM503.34 235.71h35.47v2h-35.47z"></path><path fill="#c7c7c7" d="M367.18 235.71h121.26v2H367.18z"></path><path fill="#fff" d="M284.92 250.58h4.9v4.91h-4.9z"></path><path d="M290.08 255.74h-5.41v-5.41h5.41zm-4.91-.5h4.41v-4.41h-4.41z" fill="#ebebeb"></path><path fill="#fff" d="M310.66 255.49h-4.9l2-2.46-2-2.45h4.9l2 2.45-2 2.46z"></path><path d="M310.78 255.74h-5.55l2.2-2.71-2.2-2.7h5.55L313 253zm-4.5-.5h4.26l1.8-2.21-1.8-2.2h-4.26l1.8 2.2z" fill="#ebebeb"></path><path fill="#fff" d="M298.06 250.58l.79 1.61 1.79.26-1.29 1.26.3 1.78-1.59-.84-1.6.84.31-1.78-1.29-1.26 1.78-.26.8-1.61z"></path><path d="M300 255.94l-1.92-1-1.93 1 .37-2.14-1.56-1.52 2.15-.31 1-1.95 1 1.95 2.15.31-1.55 1.52zm-1.92-1.57l1.26.66-.24-1.41 1-1-1.41-.21-.63-1.27-.63 1.27-1.41.21 1 1-.22 1.38z" fill="#ebebeb"></path><path fill="#dbdbdb" d="M316.18 252.04h39.07v2h-39.07zM503.34 252.04h35.47v2h-35.47z"></path><path fill="#c7c7c7" d="M367.18 252.04h121.26v2H367.18z"></path><path fill="#ebebeb" d="M272.14 261.2h288.1v16.33h-288.1z"></path><path fill="#fff" d="M284.92 266.91h4.9v4.9h-4.9zM310.66 271.81h-4.9l2-2.45-2-2.45h4.9l2 2.45-2 2.45z"></path><path fill="#ffc727" d="M298.06 266.91l.79 1.61 1.79.26-1.29 1.26.3 1.77-1.59-.83-1.6.83.31-1.77-1.29-1.26 1.78-.26.8-1.61z"></path><path fill="#dbdbdb" d="M316.18 268.36h39.07v2h-39.07zM503.34 268.36h35.47v2h-35.47z"></path><path fill="#c7c7c7" d="M367.18 268.36h121.26v2H367.18z"></path><path fill="#fff" d="M284.92 283.24h4.9v4.9h-4.9z"></path><path d="M290.08 288.39h-5.41V283h5.41zm-4.91-.5h4.41v-4.4h-4.41z" fill="#ebebeb"></path><path fill="#fff" d="M310.66 288.14h-4.9l2-2.45-2-2.45h4.9l2 2.45-2 2.45z"></path><path d="M310.78 288.39h-5.55l2.2-2.7-2.2-2.7h5.55l2.2 2.7zm-4.5-.5h4.26l1.8-2.2-1.8-2.2h-4.26l1.8 2.2z" fill="#ebebeb"></path><path fill="#fff" d="M298.06 283.24l.79 1.61 1.79.26-1.29 1.26.3 1.77-1.59-.83-1.6.83.31-1.77-1.29-1.26 1.78-.26.8-1.61z"></path><path d="M300 288.6l-1.92-1-1.93 1 .37-2.14-1.56-1.52 2.15-.32 1-1.95 1 1.95 2.15.32-1.55 1.52zm-1.94-1.6l1.26.67-.24-1.41 1-1-1.41-.21-.63-1.28-.63 1.28-1.41.21 1 1-.24 1.41z" fill="#ebebeb"></path><path fill="#dbdbdb" d="M316.18 284.69h39.07v2h-39.07zM503.34 284.69h35.47v2h-35.47z"></path><path fill="#c7c7c7" d="M367.18 284.69h121.26v2H367.18z"></path><path fill="#ebebeb" d="M272.14 293.85h288.1v16.33h-288.1z"></path><path fill="#fff" d="M284.92 299.57h4.9v4.91h-4.9zM310.66 304.47h-4.9l2-2.45-2-2.45h4.9l2 2.45-2 2.45zM298.06 299.57l.79 1.61 1.79.26-1.29 1.26.3 1.77-1.59-.84-1.6.84.31-1.77-1.29-1.26 1.78-.26.8-1.61z"></path><path fill="#dbdbdb" d="M316.18 301.02h39.07v2h-39.07zM503.34 301.02h35.47v2h-35.47z"></path><path fill="#c7c7c7" d="M367.18 301.02h121.26v2H367.18z"></path><path fill="#fff" d="M284.92 315.89h4.9v4.91h-4.9z"></path><path d="M290.08 321.05h-5.41v-5.41h5.41zm-4.91-.5h4.41v-4.41h-4.41z" fill="#ebebeb"></path><path fill="#fff" d="M310.66 320.8h-4.9l2-2.45-2-2.46h4.9l2 2.46-2 2.45z"></path><path d="M310.78 321.05h-5.55l2.2-2.7-2.2-2.71h5.55l2.2 2.71zm-4.5-.5h4.26l1.8-2.2-1.8-2.21h-4.26l1.8 2.21z" fill="#ebebeb"></path><path fill="#fff" d="M298.06 315.89l.79 1.62 1.79.26-1.29 1.25.3 1.78-1.59-.84-1.6.84.31-1.78-1.29-1.25 1.78-.26.8-1.62z"></path><path d="M300 321.26l-1.92-1-1.93 1 .37-2.15-1.56-1.52 2.15-.31 1-1.95 1 1.95 2.15.31-1.55 1.52zm-1.92-1.58l1.26.66-.24-1.4 1-1-1.41-.2-.63-1.28-.63 1.28-1.41.2 1 1-.24 1.4z" fill="#ebebeb"></path><path fill="#dbdbdb" d="M316.18 317.35h39.07v2h-39.07zM503.34 317.35h35.47v2h-35.47z"></path><path fill="#c7c7c7" d="M367.18 317.35h121.26v2H367.18z"></path><path fill="#ebebeb" d="M272.14 326.51h288.1v16.33h-288.1z"></path><path fill="#fff" d="M284.92 332.22h4.9v4.9h-4.9zM310.66 337.13h-4.9l2-2.45-2-2.46h4.9l2 2.46-2 2.45z"></path><path fill="#ffc727" d="M298.06 332.22l.79 1.62 1.79.26-1.29 1.25.3 1.78-1.59-.84-1.6.84.31-1.78-1.29-1.25 1.78-.26.8-1.62z"></path><path fill="#dbdbdb" d="M316.18 333.68h39.07v2h-39.07zM503.34 333.68h35.47v2h-35.47z"></path><path fill="#c7c7c7" d="M367.18 333.68h121.26v2H367.18z"></path><path fill="#dbdbdb" d="M300.72 148.5h54.54v5.84h-54.54zM284.92 148.5h7.43v5.84h-7.43z"></path><path d="M292.36 148.5l-.91.95-.92.93-1 1-.86.83-.86-.84-1-1-.92-.93-.91-.95c.32.27.63.56.95.85l.94.87 1.05 1 .78.75.78-.75 1.05-1 .94-.87c.26-.28.53-.57.89-.84z" fill="#fff"></path><path d="M287.87 151.2l-.12.15c-.18.25-.38.48-.57.7l-.72.81-.74.76c-.25.25-.51.49-.77.71.22-.3.46-.59.7-.86l.72-.81c.24-.27.49-.52.74-.76s.4-.39.61-.57l.15-.13zM292.34 154.34c-.26-.22-.52-.46-.77-.71l-.74-.76c-.24-.27-.49-.53-.72-.81s-.39-.45-.57-.69l-.12-.16.15.13c.21.18.41.37.61.57s.5.5.74.76.49.53.72.81.47.52.7.86z" fill="#fff"></path><path fill="#dbdbdb" d="M392.5 148.5h54.54v5.84H392.5zM380.06 150.48a1.24 1.24 0 11-1.24-1.24 1.23 1.23 0 011.24 1.24z"></path><path d="M381 153.89v.45h-4.28v-.45a2.14 2.14 0 114.28 0zM383.23 149.73a1.24 1.24 0 11-1.23-1.23 1.23 1.23 0 011.23 1.23z" fill="#dbdbdb"></path><path d="M384.13 153.14v.45h-4.28v-.45a2.14 2.14 0 014.28 0zM484.28 148.5h54.54v5.84h-54.54zM475.91 148.5h-7.43v5.84h7.43l2.22-2.92zm.06 3.36a.44.44 0 01-.44-.44.44.44 0 01.47-.42.43.43 0 01.44.44.44.44 0 01-.44.42z" fill="#dbdbdb"></path><path fill="#ffc727" d="M180.9 107.92h91.24v234.91H180.9z"></path><path fill="#fff" d="M193.66 142.7h65.73v17.43h-65.73zM193.66 122.62h9.16v1.47h-9.16zM193.66 129.22h9.16v1.47h-9.16zM193.66 125.96h9.16v1.47h-9.16z"></path><path fill="#ebebeb" d="M211.52 122.62h12.74v8.08h-12.74z"></path><path d="M224.26 122.62v8.07h-12.74v-8.07c.55.31 1.09.63 1.63.95s1.08.64 1.61 1l1.79 1.11 1.34.84 1.34-.84 1.79-1.11c.53-.33 1.07-.65 1.61-1s1.08-.64 1.63-.95z" fill="#ebebeb"></path><path d="M224.26 122.62l-1.56 1.06-1.57 1-1.65 1.07-1.47.94h-.14l-1.47-.94-1.65-1.07-1.57-1-1.56-1.06c.55.31 1.09.63 1.63.95s1.08.64 1.61 1l1.79 1.11 1.34.84 1.34-.84 1.79-1.11c.53-.33 1.07-.65 1.61-1s.98-.64 1.53-.95z" fill="#fff"></path><path d="M216.57 125.64l-.2.17c-.32.27-.64.53-1 .78s-.82.61-1.23.9-.84.58-1.27.85-.87.55-1.32.79c.39-.34.79-.65 1.2-1s.82-.61 1.23-.9.84-.58 1.28-.85.69-.44 1-.64l.25-.14zM224.23 129.14c-.45-.24-.89-.51-1.32-.79s-.85-.56-1.27-.85-.83-.59-1.24-.9-.65-.51-1-.78l-.2-.17.25.14c.35.2.7.42 1 .64s.86.56 1.27.85.84.59 1.24.9.88.62 1.27.96z" fill="#fff"></path><path fill="#020100" opacity="0.1" d="M180.9 175.33h91.24v12.39H180.9z"></path><path fill="#fff" d="M193.66 177.99h52.91v7.28h-52.91zM193.66 192.24h52.91v7.28h-52.91zM193.66 206.5h52.91v7.28h-52.91zM193.66 220.75h52.91v7.28h-52.91z"></path><path fill="#455a64" d="M204.89 235.01h52.91v7.28h-52.91zM204.89 249.26h52.91v7.28h-52.91z"></path><path fill="#fff" d="M193.66 263.52h52.91v7.28h-52.91zM193.66 277.77h52.91v7.28h-52.91z"></path></g><g><path d="M180.36 268.47c-.06-.68-.09-1.36-.09-2h.73c0 .65 0 1.31.09 2zM244.78 316.11v-.75c1.33 0 2.67-.05 4-.14l.05.75c-1.36.08-2.71.13-4.05.14zm-5-.15c-1.34-.09-2.69-.22-4-.39l.09-.74c1.31.16 2.65.29 4 .38zm14.06-.5l-.1-.75c1.3-.18 2.63-.4 3.93-.66l.14.74c-1.34.26-2.68.48-4 .67zm-23-.71c-1.3-.26-2.62-.57-3.92-.91l.19-.72c1.28.33 2.59.64 3.88.9zm31.91-1.11l-.19-.72c1.27-.34 2.56-.73 3.82-1.15l.23.72c-1.34.42-2.61.8-3.93 1.15zM222 312.38c-1.27-.43-2.54-.9-3.78-1.41l.29-.69c1.22.5 2.48 1 3.73 1.39zm49.24-1.62l-.28-.7c.64-.25 1.28-.52 1.92-.8s1.16-.51 1.73-.78l.32.67c-.58.28-1.16.54-1.75.8zm-57.61-1.85c-1.2-.58-2.4-1.22-3.56-1.87l.36-.66c1.16.65 2.34 1.28 3.53 1.86zm65.74-2.11l-.38-.65c1.13-.66 2.26-1.38 3.35-2.13l.42.62c-1.07.76-2.21 1.48-3.36 2.16zm-73.6-2.38c-1.12-.73-2.23-1.51-3.3-2.31l.44-.6c1.07.79 2.17 1.56 3.27 2.28zm81-2.8l-.47-.58c1-.82 2-1.7 3-2.61l.51.55c-.96.92-1.98 1.81-3 2.64zM198.56 299c-1-.87-2-1.79-3-2.72l.52-.54c1 .92 1.94 1.83 3 2.69zm94.85-3.53l-.54-.52c.89-.95 1.78-1.95 2.65-3l.57.49c-.88 1.03-1.78 2.04-2.68 3zm-101.31-2.85c-.9-1-1.76-2.06-2.58-3.11l.6-.46c.8 1 1.65 2.07 2.54 3.07zm107.14-4.1l-.6-.46c.78-1 1.57-2.11 2.35-3.22l.62.43c-.79 1.12-1.61 2.21-2.37 3.25zm-112.62-3.13c-.74-1.15-1.42-2.32-2-3.49l.67-.35c.6 1.15 1.28 2.3 2 3.43zm117.79-4.29l-.63-.4c.72-1.12 1.42-2.25 2.12-3.39l.64.39c-.7 1.15-1.41 2.3-2.13 3.4zm-121.93-3.79a35.85 35.85 0 01-1.25-3.85l.72-.19a36 36 0 001.23 3.77zm126.61-3.94l-.66-.37c.66-1.15 1.31-2.32 2-3.5l.65.36q-1 1.77-1.99 3.51zm4.33-7.93l-.67-.35c.62-1.17 1.24-2.36 1.85-3.55l.67.34c-.62 1.2-1.27 2.39-1.85 3.56zm4.12-8l-.67-.34 1.8-3.58.67.33zm4-8.07l-.67-.34 1.8-3.58.67.33zm4.06-8l-.6-.37c.6-1.19 1.22-2.38 1.84-3.57l.66.35zm4.18-8l-.66-.36q.94-1.76 1.92-3.51l.66.36-1.88 3.46zm4.38-7.84l-.65-.38q1-1.72 2-3.45l.65.39c-.61 1.09-1.29 2.24-1.96 3.39zm4.67-7.67l-.63-.4c.72-1.13 1.45-2.24 2.2-3.35l.62.42c-.71 1.05-1.43 2.16-2.15 3.28zm5-7.43l-.61-.44c.78-1.09 1.58-2.16 2.39-3.23l.6.45c-.73 1.02-1.52 2.09-2.3 3.17zm5.47-7.13l-.58-.48c.86-1 1.73-2.07 2.6-3.06l.56.49c-.78.94-1.65 1.96-2.5 3zm5.95-6.73l-.55-.52c.93-1 1.88-1.94 2.82-2.86l.53.53c-.86.87-1.8 1.83-2.72 2.8zm6.44-6.26l-.5-.55c1-.89 2-1.78 3-2.63l.48.58c-.9.79-1.92 1.67-2.9 2.55zm6.93-5.69l-.45-.6c1.07-.81 2.17-1.6 3.26-2.35l.42.62c-1 .71-2.08 1.48-3.15 2.28zm7.39-5.08l-.39-.63c1.13-.71 2.29-1.4 3.45-2.06l.37.65c-1.07.6-2.22 1.29-3.35 1.99zM384.08 175l-.34-.66q.88-.47 1.8-.9l.33.68z" fill="#263238"></path><path fill="#ffc727" d="M381.81 162.9l-6.27 17.23 13.17-10.29 50.34-18.26-57.24 11.32z"></path><path opacity="0.1" d="M381.81 162.9l-6.27 17.23 13.17-10.29 50.34-18.26-57.24 11.32z"></path><path fill="#263238" d="M390.4 173.85l-14.86 6.28 13.17-10.29 1.69 4.01z"></path><path fill="#ffc727" d="M388.71 169.84l50.34-18.26-41.29 40.3-9.05-22.04zM381.81 162.9l-20.92-13.51 78.16 2.19-57.24 11.32z"></path></g><g><circle cx="561.89" cy="107.36" r="48.78" transform="rotate(-76.09 561.894 107.364)" fill="#a6a6a6"></circle><path fill="#fff" d="M528.6 86.25h66.59v42.23H528.6z"></path><path d="M595.19 86.25c-2.69 2.57-5.43 5-8.14 7.56s-5.47 5-8.22 7.41-5.75 5.09-8.63 7.61l-.26.24-7.67 6.66-.38.31-.37-.31-7.66-6.67-.27-.23c-2.89-2.52-5.77-5-8.64-7.63s-5.48-4.91-8.21-7.39-5.45-5-8.14-7.56c2.86 2.2 5.67 4.52 8.5 6.78s5.64 4.6 8.44 6.94c3.12 2.58 6.24 5.21 9.35 7.86 2.33 2 4.66 4 7 5.94 2.32-2 4.65-4 7-5.94q4.67-4 9.35-7.87c2.8-2.32 5.61-4.64 8.43-6.92s5.66-4.59 8.52-6.79z" fill="#dbdbdb"></path><path d="M555 108.79l-.08.07-1 .89a117.06 117.06 0 01-5.12 4.07c-2.12 1.62-4.29 3.17-6.47 4.71s-4.39 3-6.64 4.46-4.52 2.85-6.87 4.14c2-1.77 4.12-3.42 6.24-5s4.3-3.17 6.47-4.72 4.4-3 6.65-4.46c1.79-1.15 3.61-2.28 5.47-3.34l1.3-.73zM595 127.13c-2.35-1.29-4.63-2.7-6.87-4.14s-4.45-2.94-6.65-4.46-4.35-3.09-6.47-4.71c-1.73-1.31-3.44-2.65-5.1-4.06l-1.06-.9-.08-.07h.1l1.3.74c1.86 1.06 3.67 2.19 5.47 3.34 2.25 1.44 4.45 2.94 6.64 4.46s4.35 3.1 6.47 4.72 4.25 3.31 6.25 5.08z" fill="#dbdbdb"></path><circle cx="587.9" cy="86.25" r="10.74" transform="rotate(-18.93 587.971 86.248)" fill="#ffc727"></circle><path d="M586.72 88.61v-8.74a1.2 1.2 0 011.19-1.19 1.18 1.18 0 011.17 1.19v8.74a1.16 1.16 0 01-1.17 1.18 1.18 1.18 0 01-1.19-1.18zm1.19 5.21a1.19 1.19 0 01-1.19-1.19v-.43a1.2 1.2 0 011.19-1.2 1.18 1.18 0 011.17 1.19v.43a1.17 1.17 0 01-1.17 1.2z" fill="#fff"></path></g><g><path d="M638 263.84a75.64 75.64 0 011.76-12.34 27.34 27.34 0 014.41-10.41 13.2 13.2 0 018.64-5.39c3.39-.41 6.57 1.1 9.1 3.23 3.14 2.64 5.54 6.14 7.79 9.53a116.45 116.45 0 016.74 11.79c.07.13-.14.24-.21.11a72.58 72.58 0 00-6-9.86 62 62 0 00-6.93-8.4c-2.33-2.27-5.28-4.39-8.65-4.5a10.65 10.65 0 00-8.46 4.36c-2.25 2.89-3.4 6.49-4.26 10a75 75 0 00-1.73 11.75c-.67 8.13-.85 16.31-1 24.46q-.2 6.94-.2 13.83l-.06 7a41.2 41.2 0 01-.27 6.76c-.07.46-.81.41-.89 0a40.32 40.32 0 01-.31-6.41c0-2.21-.06-4.43-.08-6.64q-.06-6.47 0-12.93c-.04-8.63.06-17.31.61-25.94z" fill="#263238"></path><path d="M649.66 257.71c.43-2.3 1.21-5.29 2.52-7.08 2.35-3.2 4.89-1.8 2.54 1.74a21.26 21.26 0 00-3.3 8.74s4 5.65 8.73 8.44c-.2-2.18-.82-5.52-.39-8.74.92-7 5.14-6.59 4.1-1.05a47.89 47.89 0 00-1 11.22 23.62 23.62 0 005.1 2.5c-.27-.81-.56-1.78-.88-3-1.7-6.26 2.48-8.21 2.61-4.69a49 49 0 001.62 8.88c2.29.77 4.19 1.3 5.35 1.71a19.44 19.44 0 017.83 5.35 24.68 24.68 0 005.34-6.91c-1.46-1.25-3.77-3.12-7-5.38-6-4.24-3.91-9.59.85-6.26 3.44 2.4 6.1 6.85 7.3 9.13a37.1 37.1 0 002.73-12.5c-4.72-4.42-16.38-10.59-12.86-10.59 3.16 0 10.24 4.64 12.83 6.43a32.42 32.42 0 00-.4-3.64c-4.44-2.91-18.87-7.43-16.57-8.74 2.53-1.42 12.6 3.24 15.64 4.71a18.31 18.31 0 00-2.67-5.52c-6.13-8.22-17.2-11.05-22-9.48-3.42 1.11-2.42 9.77-3.16 9.48-13.67-5.46-19.91-1.58-14.86 15.25zm33.63-.95c1-1.17 5.48 2.29 4.18 4.18s-5.47-2.67-4.18-4.18zm-23.52-7.39c1.18.75-.57 5.13-2.4 3.81-1.55-1.13 1.2-4.57 2.4-3.81z" fill="#ffc727"></path><path d="M661.56 250.71c.62-1.22 1.27-2.44 2-3.62a21.28 21.28 0 012.27-3.28c-.2-.24-.38-.49-.59-.73s.06-.23.15-.13c.23.26.45.53.67.8a.17.17 0 01.09.11c.85 1 1.65 2.06 2.41 3.13a36.41 36.41 0 014 1.15c1.35.45 2.68.92 4 1.47.13.06.07.29-.07.23-1.3-.58-2.61-1.13-4-1.59s-2.57-.76-3.85-1.12c.41.59.83 1.19 1.22 1.79a47.4 47.4 0 017 2.88c2.38 1.13 4.67 2.44 7 3.76a.12.12 0 01-.12.2 75.47 75.47 0 00-6.92-3.58c-2.21-1-4.49-1.88-6.71-2.87 5.6 8.75 9 18.84 13.45 28.18.07.14-.14.25-.2.11-1.37-3.27-3-6.47-4.45-9.69-1.34-2.89-2.65-5.8-4-8.69-.39-.85-.8-1.7-1.21-2.54.25 4.67.15 9.42.91 14a.11.11 0 11-.22 0c-.33-5-1.21-9.9-1.17-14.92v-.06c-1-1.91-2-3.79-3-5.63-1.86 4.38-3.81 8.81-4.68 13.51 0 .14-.26.08-.22-.07 1.26-4.71 2.43-9.42 4.7-13.77a54.31 54.31 0 00-4-5.68c-.62 1.16-1.42 2.26-2.13 3.37s-1.37 2.17-2 3.29a48.21 48.21 0 00-3.5 7.41c0 .14-.28.07-.22-.07 1.08-2.43 2.17-4.93 3.39-7.35zM617.39 261.35c3.6-3.61 7.78-8.34 13.34-8.33 5.36 0 9.31 4.32 11.57 8.78 2.37 4.66 3.23 9.93 3.9 15.06a185.43 185.43 0 011.42 18.53c.1 3.44.08 6.88 0 10.32a68.36 68.36 0 01-.79 10.41c-.1.56-1 .58-1 0-.17-2.9 0-5.81 0-8.71s0-5.7-.14-8.56c-.21-5.77-.63-11.53-1.31-17.26-.59-5-1.06-10.16-2.56-15-1.35-4.37-3.89-9.36-8.31-11.28-6-2.61-11.94 2.17-15.89 6.2-.15.09-.33-.06-.23-.16z" fill="#263238"></path><path d="M599.05 269.4c0 .74.07 1.47.12 2.18a13 13 0 015.89-2.44c5.1-.54 4.78 3.34 1.37 3.5a19.43 19.43 0 00-7 1.4c.83 6.74 2.68 12.16 3 12.23a97.67 97.67 0 0013.49-1.7c-1.27-2.71-4.16-6.3-2.69-6.59s3.08 2.91 3.9 6.34a64.94 64.94 0 009.81-2.7c-2.25-1.94-5.72-4.36-4.39-5.39s4.08 2.37 5.73 4.85a19.87 19.87 0 004.24-2.37c-3-4.44-10.4-5.34-9.44-8.55s7.86 1.24 11 7.19c3.63-3.77 4.7-9.11 4.32-13.67-3.17-.37-9.27.3-8.82-2s4.84-1.84 8.45-.51a12.7 12.7 0 00-2.12-5c-3.34-4.29-13.53 1.16-13.53 1.16s1.09-10.24-2.79-12c-2.24-1-6.19-1-10.16 1.33 2.23.18 4.91.89 6 2.43 1.39 2-.79 3-2.18 2.13-1-.65-2.8-2.67-6.09-2.94a20.43 20.43 0 00-3.67 4.07 19.83 19.83 0 00-1.08 1.7 14 14 0 0111.93.21c4.41 2.19 2 6.78-1.85 5s-7.49-3.52-11.49-2.52a28.55 28.55 0 00-2 11.42 20 20 0 016.55-3.14c4.39-1.15 5.71 1.47.89 2a19.59 19.59 0 00-7.39 2.38zm5.34-7c-.3-1.42 2.81-1.83 3.33-.67.43.93-3.03 2.05-3.33.62zm26.61 7.83c.3-.77 2.38.11 2.19 1.08-.19 1.29-2.44-.31-2.19-1.08zm-14.71 5c1.52-.6 3.89 3.17 2.24 4s-3.45-3.51-2.21-4.01z" fill="#ffc727"></path><path d="M603 285.5c2.29-3.82 4.55-7.67 7-11.43q1.68-2.62 3.51-5.14l-.55-.13-.91-.18c-.7-.12-1.41-.22-2.12-.29a19.34 19.34 0 00-2-.11 9.67 9.67 0 00-2.15.11c-.08 0-.1-.12 0-.11.71 0 1.44-.07 2.16-.08s1.39 0 2.08.05 1.31.1 1.95.2l1.07.19c.21 0 .43.07.64.13q1.86-2.55 3.86-5a45.79 45.79 0 00-12.53-4 .06.06 0 010-.12 42.52 42.52 0 0112.71 3.86c.73-.9 1.46-1.79 2.2-2.68s1.72-2 2.47-3c0-.07.15 0 .09.07a45.4 45.4 0 00-2.91 3.55 42.75 42.75 0 014.65 3.74c1.53 1.35 3 2.74 4.46 4.18.05 0 0 .13-.09.08q-2.13-2.13-4.45-4.06c-1.54-1.28-3.17-2.46-4.73-3.73-.35.47-.71.94-1.07 1.4l-.53.71c-.6.77-1.19 1.55-1.78 2.33a19.48 19.48 0 011.77 3.19c.51 1.08 1 2.2 1.37 3.32a48.86 48.86 0 011.91 7.17c0 .07-.1.1-.11 0a42.05 42.05 0 00-2.09-7c-.44-1.17-.95-2.31-1.47-3.45s-1.05-2-1.5-3.07c-.51.68-1 1.36-1.52 2.06l-.43.6v.11c-1.57 2.19-3.06 4.44-4.52 6.71a2.18 2.18 0 01.2.5c.09.28.18.55.26.83a14.15 14.15 0 01.4 1.71c.1.54.18 1.08.23 1.63a14.26 14.26 0 00.14 1.85c0 .09-.13.1-.12 0a6.31 6.31 0 00-.12-1.73c-.09-.59-.2-1.18-.33-1.76s-.27-1-.42-1.56c-.08-.26-.17-.52-.25-.78a4.09 4.09 0 01-.16-.42c-.68 1.07-1.36 2.14-2 3.22-1.32 2.14-2.63 4.29-3.94 6.43-.24.11-.41.01-.33-.1zM638.28 314.89c.06-2.17.4-4.36.64-6.51s.48-4.33.71-6.5a95.89 95.89 0 011.68-12.54 18.2 18.2 0 015.1-9.38 8.28 8.28 0 015-2.38 8.59 8.59 0 015.31 1.63 18.55 18.55 0 014.47 4.71 46.18 46.18 0 013.48 5.66c0 .07-.08.12-.12.05a29 29 0 00-7.53-8.45 8.93 8.93 0 00-4.75-2 6.44 6.44 0 00-4.61 1.84 17.27 17.27 0 00-4.86 8.61 86.79 86.79 0 00-1.89 11.58l-.9 6.88c-.3 2.29-.49 4.63-1 6.88a.38.38 0 01-.73-.08z" fill="#263238"></path><path d="M649 298.05a12.09 12.09 0 002.35 2.4c-.35-2.11-.78-5.87.29-7.87 1.65-3.11 3.62-1.56 2.63 1.14a22 22 0 00-1.6 7.66 32.56 32.56 0 007.21 3.4 11.8 11.8 0 01-.24-3.71c.33-3.32 2.87-3.26 2.21.2a21.46 21.46 0 00-.35 4.06 74.88 74.88 0 0011.23 2.53 32.84 32.84 0 004.65-8.27c-2.71-.68-8.19-.83-8.07-2.76.16-2.6 5.46-.6 8.57 1.28a20.63 20.63 0 00.93-7 34.81 34.81 0 00-7.46-1.24c-5.57-.48-5.29-3.64-1.26-3.57 3 .06 6.75 1.88 8.53 2.83-1.16-7.58-6.94-12.43-11.57-12.62-7.79-.31-5 9.38-5 9.38s-5.28-3.71-10.26-3.61-8.17 8.35-2.79 15.77zm20.8-14c-.17-1.09 3.31-1.35 3.49.05.16 1.55-3.36 1.04-3.54-.1zm5.6 11.37c-.08-.71 1.43-.83 1.77.06.17.57-1.76.63-1.82-.08zm-18.71.67c1.18.16 1.84 4.36-.18 4.28-1.59-.09-.86-4.44.13-4.3z" fill="#ffc727"></path><path d="M658.27 300.73c.19-.52.36-1.05.53-1.59-.15.54-.29 1.08-.39 1.63a.07.07 0 11-.14-.04zM660.32 294c.37-1.07.78-2.14 1.19-3.19.23-.57.46-1.13.71-1.68a7.09 7.09 0 01.69-1.41 10.42 10.42 0 01-.63-1.36s0-.07.07 0a15.81 15.81 0 011.52 2.36c.22.36.42.74.63 1.11a9.4 9.4 0 011.31.2c.47.09.94.18 1.4.29l1.39.32c.46.11.91.26 1.38.33.11 0 .06.19 0 .15a8 8 0 00-1.46-.38c-.44-.1-.89-.18-1.34-.24s-.91-.13-1.37-.17l-1-.08c.19.32.38.65.56 1l.09.15a4.61 4.61 0 011.11.13c.41.08.81.15 1.21.24.81.18 1.62.37 2.42.6 1.69.47 3.35 1 5 1.55.09 0 0 .17-.06.14a48.86 48.86 0 00-5-1.4l-2.39-.53-1.2-.25a7 7 0 01-.93-.21c.85 1.59 1.66 3.19 2.4 4.84 1.62 3.57 3 7.25 4.36 10.92 0 .09-.1.15-.13.06a101.09 101.09 0 00-4.65-10.68c-.31-.63-.63-1.26-.94-1.9 0 .13-.06.26-.08.39a59 59 0 00-.23 1.3c-.15.87-.3 1.74-.43 2.61a30.94 30.94 0 00-.63 5.41.08.08 0 11-.15 0c.14-.86.14-1.76.2-2.63s.12-1.83.23-2.73.21-1.75.36-2.62c.07-.43.14-.87.22-1.3a2.67 2.67 0 01.25-.94c-.46-.92-.91-1.84-1.37-2.75s-.87-1.71-1.32-2.56l-.59-1.09a8.71 8.71 0 01-.52 1.31l-.6 1.48c-.44 1.08-.86 2.18-1.28 3.28-.58 1.56-1.23 3.15-1.72 4.78.39-1.68.79-3.3 1.32-4.85zM658.8 299.14c0-.12.07-.25.11-.37-.04.12-.07.23-.11.37z" fill="#263238"></path><path fill="#37474f" d="M625.25 310.67l.55 11.59 1.41 29.89h30.84l1.41-29.89.55-11.59h-34.76z"></path><path fill="#263238" d="M625.25 310.67l.55 11.59h33.66l.55-11.59h-34.76z"></path><path fill="#37474f" d="M662.2 315.36h-39.14v-9.38h39.14zM650.14 352.15h5.41v4.91h-5.41z"></path><path fill="#263238" d="M650.14 352.15h5.41v2.45h-5.41z"></path><path fill="#37474f" d="M629.71 352.15h5.41v4.91h-5.41z"></path><path fill="#263238" d="M629.71 352.15h5.41v2.45h-5.41z"></path></g><g><path d="M87.49 444.86l144.58.63c35.15-27.6 38.78-68.48 13.7-93.27-15.17-15-34.44-12-52.78-14.35h-.06a54.31 54.31 0 01-18.61-5.47c-18.89-10-29.54-33.47-45.43-53.25q-3-3.72-6.22-7.21C109.6 258 83.58 257.53 70 277.15 35.41 327 51.24 401.2 87.49 444.86z" fill="#c7c7c7"></path><path d="M84.28 330.8c3.79 59.32 72.29 81.46 115.08 63.69 37.2-15.45 25-50.72-6.37-56.62h-.06a54.31 54.31 0 01-18.61-5.47c-18.89-10-29.54-33.47-45.43-53.25-23.68-12.3-47.39 8.22-44.61 51.65z" fill="#dbdbdb"></path></g><g><path d="M199.21 454.14c-2.14-.75-50.8-38.53-51.75-41.14-.36-1 4.73-8.4 11.13-17.17 1.38-1.9 2.82-3.85 4.29-5.82 9.55-12.81 20-26.18 20-26.18l32.6 25.17-20.87 25.48-4.58 5.6s12.17 22.79 12.9 25.77-1.57 9.04-3.72 8.29z" fill="#774442"></path><path d="M168 383.17c-1.69 2.24-3.42 4.56-5.13 6.84-1.47 2-2.91 3.92-4.29 5.81-6.4 8.78-11.48 16.18-11.12 17.18.95 2.61 49.61 40.39 51.76 41.14s4.42-5.31 3.71-8.28S190 420.09 190 420.09l4.58-5.6 4.66-5.68z" fill="#ebebeb"></path><path d="M199.44 454.6c-2.17-.78-51.49-39.42-52.44-42.08-.44-1.23 7.34-12.07 15.79-23.32l32.15 25.05-4.68 5.67s12.27 23.25 13 26.28-1.64 9.17-3.82 8.4z" fill="#ffc727"></path><path d="M200.28 452.07c-8.11-6.68-41.44-32.86-50-38.85-.07-.05-.1 0 0 0 7.9 6.8 41.44 32.71 49.9 38.94.17.18.27.05.1-.09zM192.87 419c-2.78-3.16-7.15-5.78-11.45-5.41-.17 0-.15.26 0 .3a58.73 58.73 0 0111.12 5.51.27.27 0 00.33-.4zM194.11 422.25c-2.78-3.15-7.15-5.77-11.45-5.4-.17 0-.15.25 0 .3a57.56 57.56 0 0111.12 5.51.27.27 0 00.33-.41zM195.35 425.51c-2.78-3.16-7.15-5.77-11.45-5.41-.17 0-.15.26 0 .31a57.89 57.89 0 0111.13 5.5.27.27 0 00.32-.4zM196.59 428.77c-2.78-3.16-7.15-5.78-11.45-5.41-.17 0-.15.25 0 .3a57.36 57.36 0 0111.13 5.51.27.27 0 00.32-.4z" fill="#263238"></path><path d="M204.77 416.18c.1-2.76-2.9-3.83-5.15-3.75a22 22 0 00-10.85 3.57.11.11 0 000 .18.51.51 0 00.19.81c3.46 1.11 7 2.72 10.73 2.74 2.16-.05 4.99-.93 5.08-3.55zm-10.22 1.36c-1.72-.5-3.4-1.09-5.14-1.53 2.12-.68 4.2-1.45 6.38-1.92a24.36 24.36 0 013.19-.51c1.65-.12 7 1 3.58 4.13-1.85 1.72-5.97.43-8.01-.17z" fill="#263238"></path><path d="M181.17 408.62c1.78 3.25 4.91 5.6 7.55 8.11a.51.51 0 00.8-.21c.06 0 .14 0 .14-.1a22 22 0 00-2.1-11.21c-1-2-3.39-4.14-5.77-2.73s-1.67 4.25-.62 6.14zm.35-3.47c1.12-4.45 4.65-.34 5.34 1.18a23.18 23.18 0 011.07 3 63.65 63.65 0 011.37 6.53c-1.21-1.32-2.53-2.51-3.8-3.78-1.5-1.48-4.6-4.47-3.98-6.93z" fill="#263238"></path><path d="M249.14 339c-2.24 17-44 65.91-48.86 71.53l-1.1 1.27-34.57-26.6.4-.51 30.44-39.86s-50.34 29.37-75.52 16c-11.31-6-19.7-16.63-19.7-16.63l32.87-17.53s9.1 2.94 14.91 2.09c20-2.93 65-20 75.6-19.55 13.74.61 27.58 14.19 25.53 29.79z" fill="#455a64"></path><path d="M206.39 330a39.53 39.53 0 00-3.15 4c-1.07 1.41-2.16 2.81-3.24 4.22v.05c.19-.42.38-.83.58-1.24.67-1.41 1.22-2.86 2-4.2.05-.08-.08-.16-.13-.08-.82 1.33-1.78 2.6-2.48 4-.34.66-.65 1.32-.94 2-.16.38-.33.75-.47 1.13a4.3 4.3 0 00-.2.54c-.48.65-1 1.31-1.42 2-1 1.49-1.93 3.06-3 4.53-.05.08.07.15.13.08 1-1.39 2.23-2.68 3.3-4.05s2.11-2.84 3.13-4.29l3-4.26a41.66 41.66 0 003-4.37c0-.06-.07-.06-.11-.06zM202.72 403.56c-1.89-1.76-3.94-3.39-5.94-5s-4-3.28-6.06-4.9c-4.06-3.25-8.1-6.53-12.2-9.72-2.26-1.76-4.53-3.49-6.87-5.12a.11.11 0 00-.13.18c3.84 3.5 7.94 6.69 12 9.93s8.13 6.49 12.25 9.68c2.25 1.74 4.48 3.54 6.84 5.14.09.04.2-.11.11-.19zM88.38 267.19a3 3 0 002.17 5.32 3.11 3.11 0 000 1.25 3.25 3.25 0 003.6 2.49 2.88 2.88 0 000 1.05 2.95 2.95 0 005.2 1.16 3 3 0 003.49 2 2.7 2.7 0 001.12-.53 2.38 2.38 0 000 .26 3 3 0 003.55 2.21 2.92 2.92 0 002.07-1.75 2.93 2.93 0 003.33 1.64 3 3 0 002.18-2.06 3.33 3.33 0 002.15.23 3.16 3.16 0 002-1.49 3.24 3.24 0 005-2.58 3 3 0 001.16 0 3 3 0 002.28-3.17 3 3 0 001.43 0 3.24 3.24 0 002.45-3.9 3 3 0 00-.42-1 1.89 1.89 0 00.52-.06 3 3 0 002.22-3.54 2.89 2.89 0 00-.78-1.41 3.25 3.25 0 002.15-3.82 3.17 3.17 0 00-.87-1.56 3.26 3.26 0 001.38-3.46 3.2 3.2 0 00-1.81-2.21 2.87 2.87 0 00.45-2.34 2.93 2.93 0 00-1.46-1.93 3.24 3.24 0 00-2.24-5.32 2.92 2.92 0 000-1.41 3 3 0 00-3.16-2.28 3 3 0 000-1.4 3.26 3.26 0 00-3.9-2.44 2.62 2.62 0 00-.71.27 3 3 0 00-.08-.52 3.26 3.26 0 00-3.9-2.44 2.65 2.65 0 00-.76.28 3.23 3.23 0 00-.07-.92 3.27 3.27 0 00-3.92-2.44 3.22 3.22 0 00-2.07 1.53 3.23 3.23 0 00-5.06.46 3 3 0 00-5.41.46 3 3 0 00-4.72 2.06 3.21 3.21 0 00-2.59-.5 3.26 3.26 0 00-2.35 3.2 3 3 0 00-1.08 0 3 3 0 00-2.21 3.55 2.83 2.83 0 00.42 1h-.19a3.26 3.26 0 00-2.44 3.91 2.84 2.84 0 00.35.88 2.65 2.65 0 00-.85.08 3 3 0 00-2.21 3.55 2.92 2.92 0 001.33 1.85 2.95 2.95 0 00.38 4.69 3.25 3.25 0 001.25 6.05 2.9 2.9 0 00-.8 2.75 3 3 0 002.43 2.3z" fill="#263238"></path><path d="M115.64 292.58c6.15 8.83 27.25 31.76 41.84 35.09 8 1.83 46.89 7.26 52.21 2.42 6.24-5.67 3.35-27.06-1.61-27.26-15.13-.59-43.13 2.37-50.13.83-3.16-.7-19.93-11.52-37.84-20.17-6.77-3.27-8.44 3.39-4.47 9.09z" fill="#774442"></path><path d="M199.84 301.66l-2.59 32s-35.25-.56-45.89-6.54-28-21.24-34.59-31.85-4.41-16.39 8.53-9.87 30.39 17 32.68 17.55 41.86-1.29 41.86-1.29z" fill="#ffc727"></path><path d="M192.81 303.88c0-.08-.13-.11-.15 0-.44 2.2-.62 4.46-.87 6.68s-.48 4.61-.68 6.92c-.42 4.6-.9 9.23-1 13.85 0 .2.26.19.29 0 .69-4.54 1.06-9.14 1.49-13.71.21-2.26.41-4.53.57-6.8s.38-4.63.35-6.94z" fill="#263238"></path><path d="M145 296.09a147.16 147.16 0 01-11.21 18 5.49 5.49 0 00-.37-.33 146.93 146.93 0 0011.14-17.9c.16.06.31.14.44.23zM149.21 298.43a143.21 143.21 0 01-11.6 18.9l-.38-.32a144 144 0 0011.55-18.82z" fill="#fff"></path><path d="M166 331.2c-6-.95-11.46-2.26-14.66-4.06-10.64-6-28-21.24-34.59-31.85-5.06-8.1-5-13.39 1.13-12.53z" fill="#020100" opacity="0.1"></path><path d="M84.45 351.89c1.93.63 56.89-15.27 56.89-15.27l-6.49-19.08s3.2-6.14 1.72-12c-2-7.89-16.59-20.85-17.73-21.61-4.61-3.05-8.92-3-12.74-1-15.89 8.43-21.65 68.96-21.65 68.96z" fill="#ffc727"></path><path d="M133.83 299.93c-14.22 7-33.85 9.62-42.09 10.46 0-.17.09-.34.14-.51 8.3-.87 27.62-3.51 41.66-10.37zM136 303.85c-15.1 8.24-37.93 11-45.57 11.74a4.87 4.87 0 01.12-.52c7.77-.75 30.33-3.53 45.24-11.68.09.16.21.31.21.46z" fill="#fff"></path><path d="M126.38 290.76c1.41 1.65 2.93 3.21 4.39 4.82-.68-1.2-1.36-2.4-2.08-3.58a26.67 26.67 0 012.79 4.44 36.62 36.62 0 013 3.87 17.41 17.41 0 012.5 5.32 14.56 14.56 0 01.16 5.88 37.62 37.62 0 01-1.85 6.58c-.1.28-.51.1-.43-.18 1-3.72 2.2-7.66 1.38-11.54s-3.23-7.1-5.57-10.16a54.13 54.13 0 00-4.47-5.33c-.01-.1.11-.2.18-.12z" fill="#263238"></path><path d="M98.92 296.21c-4.42 25.06-.83 44 3.43 46.31 11.46 6.26 33.57-4.78 41.34-7.3 3.14-1 .12-27.08-3.34-26.37-8.52 1.73-23.74 10.58-24.17 10.54-.85-.09-1.84-6.49-6.22-25.14-3.55-15.08-9.23-8.25-11.04 1.96z" fill="#774442"></path><path d="M137.1 309.73s16.11-6.74 29.14-6.14c4.42.2 22.35 5.84 21.17 10.23-1.07 4-15.93-2.51-15.93-2.51s15.57 5.21 13.41 9.75-18-5-18-5 15.87 5.71 12.9 10c-2.25 3.27-17.06-4.57-17.06-4.57s13.62 5 11.45 8.46c-2.39 3.83-16.52-2.55-16.52-2.55-7 7.88-13.54 8.77-18.27 8.85-1.13.05-2.29-26.52-2.29-26.52z" fill="#774442"></path><path d="M166.21 309.16c1.85.55 3.73 1.09 5.53 1.79s3.57 1.48 5.29 2.36a33.7 33.7 0 016.38 4c-3.7-2.55-10.09-5.19-11.89-5.9s-3.55-1.5-5.34-2.21c-.04.01-.01-.05.03-.04zM163.53 315.6c2.34.8 4.68 1.51 7 2.41s4.38 1.95 6.6 3c.17.09.07.15-.1.08-2.26-1-4.42-1.68-6.7-2.62s-4.5-2-6.8-2.82c-.05-.01-.03-.06 0-.05zM160.24 320.71a54.7 54.7 0 0110.39 4.51c.17.08 0 .15-.14.07-3.43-1.56-6.11-2.81-10.28-4.45-.07-.03-.04-.15.03-.13z" fill="#263238"></path><path d="M133.93 309.82L147.11 338s-40.9 11.94-46.45 4.76S95.5 313 98.1 297.37s9.64-15.92 12.71-1.8 4.89 23 5.45 23 17.67-8.75 17.67-8.75z" fill="#ffc727"></path><path d="M114.28 311.5a114.54 114.54 0 01-18 9.7v-.54a113.55 113.55 0 0017.88-9.66c.05.16.08.33.12.5zM115.44 316.37a115.84 115.84 0 01-19 10.15v-.54a114.22 114.22 0 0018.85-10.12c.06.14.11.35.15.51z" fill="#fff"></path><path d="M128.59 313.61c0-.07-.17 0-.14.05.74 2.12 1.72 4.16 2.63 6.21s1.92 4.22 2.91 6.31c2 4.18 3.88 8.42 6.09 12.48a.15.15 0 00.26-.14c-1.7-4.26-3.71-8.42-5.64-12.58-1-2.06-1.93-4.12-2.94-6.16s-1.98-4.2-3.17-6.17zM125.5 343.18a18.2 18.2 0 00-3.43.57c-1.18.21-2.36.4-3.55.56a67.38 67.38 0 01-7 .59c-2.28.06-7.93-.28-9.67-1.85a11 11 0 01-3-5.09 75.5 75.5 0 01-1.4-8 104.12 104.12 0 01-.45-17.25c.07-1.6.17-3.19.28-4.79s.31-3.25.37-4.88a.06.06 0 00-.11 0 57.87 57.87 0 00-1.08 7.88c-.1-1.65-.3-3.29-.33-4.94 0-.1-.15-.09-.15 0 0 1.74-.08 3.47 0 5.21 0 1 .14 1.95.25 2.92q-.21 3.31-.18 6.63a68.05 68.05 0 002 17.3c.68 2.46 1.72 4.81 4 6.12a14.42 14.42 0 005.38 1.41 44.78 44.78 0 0011.78-.75c1.08-.2 2.17-.43 3.25-.67a13.18 13.18 0 003.1-.85.06.06 0 00-.06-.12zM134.45 310.04zM133.87 309.29c-3 1.5-6 3-9 4.55l-4.44 2.27c-1.42.74-4.13 2.2-4.13 2.2 0-.68-.56-2.65-.84-3.92s-.64-2.76-1-4.14c-.09-.35-.19-.71-.29-1.07l-.18-2c-.1-1.06-.19-2.15-.36-3.21h-.06a15.44 15.44 0 000 3q-.69-2.49-1.42-5h-.09c.54 2.79 1.11 5.58 1.75 8.35.31 1.35.65 2.68 1 4a42.48 42.48 0 001.2 4.28 46.24 46.24 0 004.5-2q2.31-1.1 4.6-2.25c2.95-1.48 5.93-3 8.79-4.66 0 0 .44.93.47 1s.17-.08.14-.21a5.37 5.37 0 00-.64-1.19zM134.45 310.04v.01-.01z" fill="#263238"></path><path fill="#c7c7c7" d="M136.01 329.96h58.31v2.62h-58.31z"></path><path fill="#a6a6a6" d="M148.48 329.96l-1.99 2.62h47.83v-2.62h-45.84z"></path><path fill="#c7c7c7" d="M150.98 332.57h56.83l4.73-38.59h-56.83l-4.73 38.59z"></path><path d="M178.3 313.28a3.39 3.39 0 003.4 3.46 3.54 3.54 0 003.52-3.46 3.39 3.39 0 00-3.4-3.46 3.53 3.53 0 00-3.52 3.46z" fill="#fff"></path><path d="M212.08 297.71c2.14 3.31 7.42 7.17 8.15 10a3.35 3.35 0 01-1.38 3.76s3.06 1.06 3.3 3.74c.12 1.38-2 2.78-2 2.78a4 4 0 012.48 3.36c0 1.91-2.06 3-2.06 3s1.89 2 1.32 4c-1.16 4-17.43 6.13-20.73.47-1.55-2.64 2.46-2.95 2.46-2.95s-5.87-.95-6.39-4.29 4.69-3.43 4.69-3.43-5.67-1-5.87-4.48c-.21-3.67 5-2.86 5-2.86s-3.94-2-3.47-4.71c.76-4.5 10 .29 13.5-1z" fill="#774442"></path><path d="M220.28 324.61v.09a28.45 28.45 0 01-16.89 1.21c-.18 0-.18-.35 0-.34a58 58 0 0016.89-.96zM220.25 318c.07 0 .09.09 0 .11a26.59 26.59 0 01-18.5.18c-.21-.08-.31-.36-.07-.28 4.16 1.3 13.39 1.16 18.57-.01zM200.72 310.5c5.87 2 11.82 2 17.91 1.08.08 0 .09.1 0 .13-2.86 1.26-6.81 1.44-9.89 1.33a16.46 16.46 0 01-8.13-2.34c-.06-.06-.02-.25.11-.2z" fill="#263238"></path><path d="M103.45 284.88s9.72 8.24 15.9 6.73 2.39-7.78 2.39-7.78-5.64-3.44-11.67-2.65a10.47 10.47 0 00-6.62 3.7z" fill="#774442"></path><path d="M108.45 283.4c.22 1 4.87 7.51 9.41 7.37 1.48 0 1.57-8.14 1.57-8.14l.14-.6 2-8.34-11.15-7.3s-2.06 16.61-1.97 17.01z" fill="#774442"></path><path d="M121.56 273.69l-2 8.34a17.24 17.24 0 01-9.84-10c.34-2.87.63-5.26.67-5.61a.18.18 0 000-.05l1.41.85z" fill="#263238"></path><path d="M133.52 261.58c.31 15.05-8.67 16.94-11.91 17-3 .06-13-.12-14.85-15.05s5-19.84 11.76-20.33 14.69 3.34 15 18.38z" fill="#774442"></path><path d="M131.2 259.18a8.8 8.8 0 01-1-.26 1.68 1.68 0 01-1-.47.53.53 0 010-.65 1.33 1.33 0 011.32-.24 1.88 1.88 0 011.19.75.56.56 0 01-.51.87zM121 260c.35 0 .68-.11 1-.17a1.67 1.67 0 001-.37.53.53 0 000-.65 1.32 1.32 0 00-1.29-.37 1.92 1.92 0 00-1.26.63.57.57 0 00.55.93zM123 262.3s-.08.05-.08.09c0 1-.16 2.2-1.1 2.52 0 0 0 .06 0 0 1.11-.08 1.32-1.64 1.18-2.61z" fill="#263238"></path><path d="M122.08 261.21c-1.64-.17-1.86 3.13-.33 3.29s1.71-3.15.33-3.29z" fill="#263238"></path><path d="M121.42 261.34c-.3.17-.6.48-1 .49s-.69-.35-.93-.7h-.06c0 .64.15 1.3.82 1.44s1.1-.41 1.3-1c.08-.12-.01-.3-.13-.23zM128.91 262.35s.08 0 .07.09c-.1 1 0 2.21.85 2.61v.06c-1.13-.24-1.18-1.81-.92-2.76z" fill="#263238"></path><path d="M129.9 261.35c1.66 0 1.54 3.3 0 3.3s-1.38-3.3 0-3.3z" fill="#263238"></path><path d="M130.58 261.59c.26.18.51.51.82.54s.64-.31.88-.65h.05c0 .63-.23 1.28-.84 1.38s-1-.46-1.08-1.1c-.02-.07.07-.25.17-.17zM122.25 271.35c.21.27.4.63.77.71a2.72 2.72 0 001.13-.1s.06 0 0 .05a1.38 1.38 0 01-1.36.38 1.12 1.12 0 01-.68-1c.03-.07.11-.08.14-.04zM126.92 267.69s.09 1.54 0 2.26c0 .07-.18.08-.43.08a3.43 3.43 0 01-3.21-1.55c0-.08 0-.14.11-.09a5.2 5.2 0 003 1.15c.07-.2-.23-2.64-.12-2.64a6.37 6.37 0 011.6.5c-.08-3.21-.69-6.39-.72-9.6a.1.1 0 01.19 0 52.29 52.29 0 011.22 10.31c.08.38-1.36-.28-1.64-.42z" fill="#263238"></path><path d="M126.51 269.74a4.15 4.15 0 01-1.66 1.33 1.87 1.87 0 01-1.15.09c-.83-.2-.86-1-.72-1.62a4.29 4.29 0 01.35-1 5.46 5.46 0 003.18 1.2z" fill="#263238"></path><path d="M124.85 271.07a1.87 1.87 0 01-1.15.09c-.83-.2-.86-1-.72-1.62a2 2 0 011.87 1.53z" fill="#ff9cbd"></path><path d="M107.93 262.88c1.59-.1 5.72-4.5 5.82-12.2 0 0-.56 6.91-1.08 7.92s2.31-2.47 2.48-8.68a25.16 25.16 0 006.38 3.28c2.94.81 4.73.78 4.94.56s-4.11-1.55-5.28-2.89c0 0 7.81 3.59 11.4 3.85.42 0 .31-7.36-5.27-11s-13.78-.81-16.14 1.48c0 0-1.67.76-4.67 4.88s-.3 12.92 1.42 12.8z" fill="#263238"></path><path d="M107.63 266.47c.76 2.1-5.17-7.39-5.3-8.94s2-9.43 8.09-13.35c5.11-3.29 12-2.15 13.17-1.94a9.46 9.46 0 013.73 1.51s-9-1.52-16.14 1.48c-3.44 1.45-6.41 13.4-3.55 21.24z" fill="#ffc727"></path><path d="M107.58 243.8s1.19-4.77 5.08-6.51c0 0 1.12 4.05.12 5.83-.5.88-3.58 2.16-4.11 1.75a7.5 7.5 0 01-1.09-1.07z" fill="#ffc727"></path><path d="M107.58 243.8a8.43 8.43 0 001.08 1.07.19.19 0 00.09 0 .16.16 0 00.11 0h.14a4.66 4.66 0 001.77-.47 9.65 9.65 0 00-1-1.6 2.84 2.84 0 00-1.56-.72 10.53 10.53 0 00-.63 1.72z" fill="#050400" opacity="0.1"></path><path d="M106.77 244.66s-5.91.93-8.22 3A8 8 0 00104 250c1.36-.08 4.33-3.55 3.92-4.15a6.1 6.1 0 00-1.15-1.19z" fill="#ffc727"></path><path d="M105.44 244.91a3.4 3.4 0 00.69 1.83 2.91 2.91 0 001 .69c.56-.73.91-1.39.75-1.62a5.91 5.91 0 00-1.15-1.15s-.49.08-1.29.25z" fill="#050400" opacity="0.1"></path><path d="M106.59 246.12a1.94 1.94 0 100-2.74 1.93 1.93 0 000 2.74z" fill="#ffc727"></path><path d="M109.18 264.63s-3-4.9-5.18-3.87-.18 8 2.25 9.08a2.56 2.56 0 003.5-1.14z" fill="#774442"></path><path d="M104.63 262.74v.06c1.71.83 2.52 2.51 3.06 4.24a1.4 1.4 0 00-2.07-.52v.09a1.57 1.57 0 011.68.66 7 7 0 01.73 1.45c.07.16.36.09.31-.09.2-2.27-1.34-5.51-3.71-5.89z" fill="#263238"></path><path d="M324.52 410.44c-.79 2.13-39.4 50.13-42 51-1 .34-8.32-4.87-17-11.43-1.87-1.41-3.8-2.88-5.74-4.39-12.65-9.74-25.78-20.4-25.78-20.4L259.68 393l25.12 21.31 5.52 4.67s23-11.76 26-12.44 8.99 1.77 8.2 3.9z" fill="#774442"></path><path d="M253 440.4c2.21 1.73 4.5 3.5 6.75 5.25 2 1.51 3.87 3 5.73 4.4 8.67 6.55 16 11.76 17 11.41 2.63-.9 41.24-48.89 42-51s-5.23-4.52-8.21-3.86-26 12.45-26 12.45l-5.52-4.68-5.6-4.76z" fill="#ebebeb"></path><path d="M325 410.22c-.81 2.16-40.31 50.8-43 51.7-1.23.42-11.93-7.55-23-16.19L284.56 414l5.59 4.78s23.46-11.86 26.5-12.53 9.15 1.81 8.35 3.97z" fill="#ffc727"></path><path d="M322.47 409.34c-6.82 8-33.58 40.86-39.71 49.28-.05.07 0 .1.05 0 6.93-7.77 33.42-40.86 39.8-49.22.13-.13.01-.23-.14-.06zM289.28 416.17c-3.21 2.72-5.9 7.05-5.61 11.36 0 .16.25.14.3 0a59.09 59.09 0 015.7-11 .26.26 0 00-.39-.36zM292.55 415c-3.2 2.72-5.9 7.05-5.6 11.35 0 .17.25.15.3 0a57.92 57.92 0 015.7-11 .27.27 0 00-.4-.35zM295.83 413.81c-3.21 2.72-5.9 7-5.6 11.35 0 .17.24.15.3 0a58.15 58.15 0 015.69-11 .26.26 0 00-.39-.35zM299.11 412.62c-3.21 2.73-5.9 7.05-5.61 11.36 0 .17.25.15.3 0a57.9 57.9 0 015.7-11 .27.27 0 00-.39-.36z" fill="#263238"></path><path d="M286.67 404.22c-2.76-.15-3.89 2.83-3.85 5.09a22.05 22.05 0 003.34 10.91.1.1 0 00.17 0 .51.51 0 00.81-.17c1.17-3.45 2.85-7 2.93-10.69.05-2.15-.79-5-3.4-5.14zm1.18 10.25c-.53 1.71-1.15 3.38-1.62 5.11a64.32 64.32 0 01-1.81-6.42A24.27 24.27 0 01284 410c-.09-1.66 1.13-6.94 4.19-3.51 1.65 1.85.3 5.94-.34 7.98z" fill="#263238"></path><path d="M278.7 427.69c3.27-1.73 5.68-4.82 8.24-7.41a.51.51 0 00-.2-.8c0-.07 0-.14-.1-.15a22.12 22.12 0 00-11.25 1.91c-2 1-4.19 3.32-2.82 5.72s4.22 1.74 6.13.73zm-3.47-.41c-4.43-1.2-.26-4.66 1.27-5.32a23.36 23.36 0 013.06-1 66.17 66.17 0 016.54-1.26c-1.33 1.2-2.55 2.5-3.84 3.74-1.53 1.46-4.58 4.5-7.03 3.84z" fill="#263238"></path><path d="M283.44 409.42L256.35 446l-91.43-63.45-8.82-6.12s-2.49 1.68-6.25 3.76c-5.22 2.89-12.87 6.54-19.64 7.54-11.35 1.68-30.3 1.49-39.86-11.3-8.06-10.77-3.69-24.82-3.69-24.82l12.47-5.36s29.49-24.57 48.59-25.31c8.12-.32 19.93 5.83 30.88 12.25s104.84 76.23 104.84 76.23z" fill="#455a64"></path><path d="M156.1 376.41s-2.49 1.68-6.25 3.76c-6.64-7.95-20.71-22.4-21.14-22.91zM109.93 338c-1.76 1.22-3.46 2.52-5.2 3.78s-3.48 2.4-5.11 3.75-3.22 2.84-4.78 4.31c-.75.72-1.49 1.44-2.22 2.18a19.2 19.2 0 00-2.12 2.3c-.06.08 0 .17.13.12a25.36 25.36 0 002.37-1.91l2.46-2.1c1.59-1.34 3.2-2.65 4.78-4s3-2.81 4.59-4.17 3.42-2.81 5.15-4.18c.02-.08.02-.08-.05-.08zM277.08 408.11c-1.76 1.9-3.38 3.94-5 5.94s-3.28 4-4.91 6.06c-3.25 4.06-6.53 8.1-9.72 12.2-1.75 2.26-3.49 4.53-5.12 6.88-.07.1.1.22.18.13 3.5-3.85 6.69-7.95 9.94-12s6.48-8.14 9.67-12.25c1.74-2.25 3.54-4.49 5.14-6.84.05-.1-.1-.23-.18-.12zM202.05 408.48c-4.55-3.58-9.27-7-14-10.33s-9.39-6.7-14.15-9.95c-1.37-.93-2.75-1.84-4.12-2.76s-2.81-1.76-4.16-2.7c-.08-.06-.15.07-.07.13 1.24.88 2.41 1.88 3.62 2.8s2.31 1.77 3.48 2.63c2.29 1.69 4.6 3.35 6.9 5q7 5.07 14.13 10c2.7 1.85 5.39 3.71 8.14 5.47.18.09.38-.17.23-.29zM231.29 370.76c-4.21-3.48-8.71-6.62-13.12-9.84s-8.89-6.54-13.36-9.78l-13.32-9.62c-4.3-3.11-8.58-6.27-13.13-9q-3.74-2.26-7.66-4.16a49.47 49.47 0 00-7.92-3.23c-.08 0-.12.09-.05.13 2.24 1.25 4.59 2.31 6.86 3.51s4.45 2.45 6.62 3.77c4.51 2.73 8.77 5.84 13 8.92 8.89 6.39 17.76 12.81 26.71 19.11 5 3.53 9.92 7.25 15.12 10.49.21.07.4-.18.25-.3z" fill="#263238"></path></g></svg>