<svg xmlns="http://www.w3.org/2000/svg" viewBox="0 0 64 64" fill="none" role="img" aria-label="Test2FCM">
  <defs>
    <linearGradient id="t2fTile" x1="6" y1="4" x2="58" y2="60" gradientUnits="userSpaceOnUse">
      <stop stop-color="#FFD54F"/>
      <stop offset=".5" stop-color="#FFA000"/>
      <stop offset="1" stop-color="#FF6F00"/>
    </linearGradient>
    <linearGradient id="t2fShine" x1="10" y1="8" x2="30" y2="34" gradientUnits="userSpaceOnUse">
      <stop stop-color="#fff" stop-opacity=".35"/>
      <stop offset="1" stop-color="#fff" stop-opacity="0"/>
    </linearGradient>
  </defs>
  <rect x="4" y="4" width="56" height="56" rx="16" fill="url(#t2fTile)"/>
  <rect x="4.75" y="4.75" width="54.5" height="54.5" rx="15.25" fill="url(#t2fShine)"/>
  <rect x="4.75" y="4.75" width="54.5" height="54.5" rx="15.25" stroke="#fff" stroke-opacity=".22" stroke-width="1.5"/>
  <g transform="translate(15.4 16.6) scale(1.18)" stroke="#fff" stroke-width="2.2" stroke-linecap="round" stroke-linejoin="round">
    <path d="M18 8a6 6 0 0 0-12 0c0 7-3 9-3 9h18s-3-2-3-9"/>
    <path d="M13.73 21a2 2 0 0 1-3.46 0"/>
  </g>
  <circle cx="45" cy="19" r="7.5" fill="url(#t2fTile)"/>
  <circle cx="45" cy="19" r="7.5" stroke="#fff" stroke-width="2.4"/>
  <circle cx="45" cy="19" r="3.4" fill="#fff"/>
</svg>
